<svg width="627" height="512" viewBox="0 0 627 512" fill="none" xmlns="http://www.w3.org/2000/svg">
<g clip-path="url(#clip0_552_72)">
<rect width="626.939" height="512" fill="white"/>
<path d="M206.449 128.801C204.822 128.15 202.868 127.01 200.59 125.383C198.311 123.755 195.056 122.29 190.824 120.988C186.592 119.361 181.221 118.059 174.711 117.082C168.201 116.105 159.9 115.943 149.809 116.594V67.2773C164.132 67.6029 178.617 69.2305 193.266 72.1602C208.24 74.7643 220.284 78.9961 229.398 84.8555C227.445 89.0872 225.167 93.8073 222.562 99.0156C219.958 103.898 217.517 108.618 215.238 113.176C212.96 117.408 211.007 120.988 209.379 123.918C207.751 126.848 206.775 128.475 206.449 128.801ZM37.9922 167.863C37.9922 153.54 40.4336 140.682 45.3164 129.289C50.1992 117.896 56.7096 107.967 64.8477 99.5039C73.3112 90.7148 83.0768 83.8789 94.1445 78.9961C105.538 73.7878 117.419 70.3698 129.789 68.7422V120.012C119.372 123.592 110.746 129.94 103.91 139.055C97.0742 147.844 93.6562 156.796 93.6562 165.91C93.6562 178.605 97.0742 188.859 103.91 196.672C110.746 204.484 119.372 211.32 129.789 217.18V272.844C119.047 267.635 108.305 262.102 97.5625 256.242C86.8203 250.057 77.0547 242.896 68.2656 234.758C59.4766 226.62 52.1523 217.18 46.293 206.438C40.7591 195.695 37.9922 182.837 37.9922 167.863ZM45.8047 367.082C50.362 369.686 56.0586 372.29 62.8945 374.895C70.056 377.173 77.3802 379.452 84.8672 381.73C92.3542 383.684 99.8411 385.311 107.328 386.613C114.815 387.915 121.814 388.566 128.324 388.566H129.789V434.953H128.812C121 434.953 112.862 434.465 104.398 433.488C96.2604 432.837 87.9596 431.535 79.4961 429.582C71.0326 427.629 62.8945 425.025 55.082 421.77C47.5951 418.189 41.0846 413.957 35.5508 409.074L45.8047 367.082ZM149.809 226.945C160.551 231.828 171.456 237.036 182.523 242.57C193.917 248.104 204.171 254.94 213.285 263.078C222.4 270.891 229.887 280.493 235.746 291.887C241.605 303.28 244.535 317.44 244.535 334.367C244.535 346.086 242.257 357.479 237.699 368.547C233.467 379.615 227.283 389.706 219.145 398.82C211.332 407.609 201.566 415.096 189.848 421.281C178.129 427.466 164.783 431.535 149.809 433.488V386.613C176.501 380.103 189.848 362.362 189.848 333.391C189.848 321.997 186.104 312.557 178.617 305.07C171.13 297.583 161.527 290.585 149.809 284.074V226.945ZM580.473 73.1367V433H521.879V270.891H386.137V230.852H521.879V73.1367H580.473ZM306.547 73.1367H366.117V433H306.547V73.1367Z" fill="#A18A68"/>
</g>
<defs>
<clipPath id="clip0_552_72">
<rect width="626.939" height="512" fill="white"/>
</clipPath>
</defs>
</svg>
